<svg width="904" height="544" viewBox="0 0 904 544" fill="none" xmlns="http://www.w3.org/2000/svg">
<path d="M-6.89487 541.177C-5.85152 534.917 -1.17796 528.657 2.29534 523.632C15.3284 504.776 31.7 486.974 48.873 471.833C87.7805 437.527 140.227 415.399 189.233 400.191C252.658 380.507 319.358 372.843 383.793 356.955C439.438 343.234 495.102 331.021 551.202 319.359C604.425 308.294 655.225 292.845 703.153 267.037C731.137 251.969 762.473 242.624 789.729 226.412C814.503 211.677 838.75 192.672 859.596 172.733C875.603 157.422 893.225 143.487 898.759 121.351C913.367 62.9191 851.68 10.2824 797.249 5.84725C774.322 3.97913 750.009 1.56416 727.069 4.59404C701.207 8.0097 676.174 24.8058 656.68 41.5638C625.514 68.3557 618.583 105.932 622.426 144.745C624.163 162.288 639.728 186.63 656.68 193.411" stroke="#EF6C00" stroke-width="5" stroke-linecap="round"/>
</svg>
