<svg height="512" viewBox="0 0 32 32" width="512" xmlns="http://www.w3.org/2000/svg"><g id="OUTLINE_copy_2"><g><g><path d="m13.83 19.259 5.432-3.259-5.432-3.259z"/></g><g><path d="m16 0c-8.836 0-16 7.163-16 16s7.164 16 16 16 16-7.164 16-16-7.164-16-16-16zm8.688 16.701c0 1.5-.174 3-.174 3s-.17 1.278-.69 1.839c-.661.738-1.401.742-1.741.786-2.432.186-6.083.192-6.083.192s-4.518-.044-5.908-.186c-.387-.077-1.254-.055-1.916-.792-.521-.562-.69-1.839-.69-1.839s-.174-1.499-.174-3v-1.406c0-1.5.174-2.999.174-2.999s.17-1.278.69-1.841c.661-.739 1.401-.743 1.741-.785 2.431-.188 6.079-.188 6.079-.188h.008s3.648 0 6.079.188c.339.042 1.08.046 1.741.784.521.563.69 1.841.69 1.841s.174 1.5.174 3z"/></g></g></g></svg>