<svg width="200" height="46" viewBox="0 0 200 46" fill="none" xmlns="http://www.w3.org/2000/svg">
<g id="Andreessen Horowitz (logo &#226;&#128;&#148; Colour)">
<path id="Vector" d="M105.334 27.6191C100.286 27.6191 96.286 31.5239 96.286 36.6668C96.286 41.8096 100.381 45.7144 105.334 45.7144C110.381 45.7144 114.381 41.7144 114.381 36.6668C114.381 31.5239 110.381 27.6191 105.334 27.6191ZM105.334 31.2382C108.381 31.2382 110.667 33.5239 110.667 36.6668C110.667 39.8096 108.286 42.0953 105.334 42.0953C102.286 42.0953 100 39.8096 100 36.6668C99.9051 33.5239 102.286 31.2382 105.334 31.2382Z" fill="white"/>
<path id="Vector_2" d="M180.667 39.9045V31.6188H184.952V27.9997H180.667V23.1426L176.952 24.2854V27.9997H173.81V31.6188H176.952V39.9045C176.952 44.3807 179.238 45.9997 184.952 45.2378V41.9045C182.095 42.095 180.667 42.095 180.667 39.9045Z" fill="white"/>
<path id="Vector_3" d="M199.905 41.8095H191.429L199.905 31.619V28.1904H186.762V31.619H195.238L186.762 41.8095V45.3333H199.905V41.8095Z" fill="white"/>
<path id="Vector_4" d="M51.6191 1.14286L55.4286 0V24.0952H51.6191V22.7619C49.9048 24 47.7143 24.6667 45.3334 24.4762C41.1429 24.0952 37.6191 20.6667 37.2381 16.381C37.2381 16 37.1429 15.7143 37.1429 15.3333C37.1429 15.0476 37.1429 14.7619 37.2381 14.4762C37.2381 14.381 37.2381 14.381 37.2381 14.2857V14.1905V14.0952C37.2381 13.9048 37.3334 13.7143 37.3334 13.5238C37.3334 13.4286 37.3334 13.3333 37.4286 13.3333V13.2381V13.1429C37.4286 12.9524 37.5238 12.8571 37.5238 12.6667C37.5238 12.5714 37.6191 12.4762 37.6191 12.381V12.2857C37.7143 12.0952 37.7143 12 37.8095 11.8095C37.8095 11.7143 37.9048 11.619 37.9048 11.5238C37.9048 11.5238 37.9048 11.5238 37.9048 11.4286C38 11.2381 38.0953 11.1429 38.0953 10.9524C38.1905 10.8571 38.1905 10.7619 38.2857 10.6667C38.381 10.5714 38.4762 10.381 38.5715 10.2857C38.6667 10.1905 38.7619 10.0952 38.8572 10C38.9524 9.90476 39.0476 9.71429 39.1429 9.61905C39.2381 9.52381 39.3334 9.42857 39.4286 9.33333C39.5238 9.2381 39.6191 9.14286 39.8096 8.95238C39.9048 8.85714 40 8.7619 40.0953 8.66667C40.1905 8.57143 40.381 8.47619 40.4762 8.38095C40.8572 8.19048 40.9524 8.09524 41.0476 8C41.1429 7.90476 41.3334 7.80952 41.4286 7.71429H41.5238C41.6191 7.61905 41.7143 7.61905 41.8095 7.52381C42 7.42857 42.0953 7.33333 42.2857 7.33333H42.381C42.4762 7.33333 42.5715 7.2381 42.6667 7.2381C42.8572 7.14286 42.9524 7.14286 43.1429 7.04762H43.2381C43.3334 7.04762 43.4286 6.95238 43.5238 6.95238C43.7143 6.85714 43.8096 6.85714 44 6.85714H44.0953H44.1905C44.2857 6.85714 44.381 6.85714 44.4762 6.7619C44.6667 6.7619 44.8572 6.66667 45.0476 6.66667H45.1429C45.2381 6.66667 45.2381 6.66667 45.3334 6.66667C45.6191 6.66667 46 6.57143 46.2857 6.57143C48.2857 6.57143 50.0953 7.2381 51.6191 8.28572V1.14286ZM45.1429 20.6667C48.5715 21.4286 51.6191 18.7619 51.6191 15.5238V15.4286C51.6191 12.4762 49.2381 10.0952 46.2857 10.0952C46.0953 10.0952 45.9048 10.0952 45.7143 10.0952H45.6191C45.6191 10.0952 45.6191 10.0952 45.5238 10.0952C45.4286 10.0952 45.2381 10.0952 45.1429 10.1905H45.0476C44.9524 10.1905 44.8572 10.2857 44.7619 10.2857C44.6667 10.2857 44.5715 10.381 44.5715 10.381C44.4762 10.381 44.381 10.4762 44.2857 10.4762C44.1905 10.4762 44.1905 10.5714 44.0953 10.5714C44 10.6667 43.9048 10.6667 43.8096 10.7619C43.7143 10.7619 43.7143 10.8571 43.6191 10.8571C43.5238 10.9524 43.4286 10.9524 43.3334 11.0476C43.3334 11.0476 43.3334 11.0476 43.2381 11.0476L43.1429 11.1429C43.0476 11.2381 42.9524 11.3333 42.8572 11.4286C42.8572 11.4286 42.8572 11.4286 42.7619 11.5238C42.6667 11.619 42.4762 11.8095 42.381 11.9048C42.2857 12 42.1905 12.1905 42.0953 12.2857C42.0953 12.2857 42.0953 12.381 42 12.381C42 12.381 42 12.381 42 12.4762C41.9048 12.5714 41.9048 12.6667 41.8095 12.7619C41.8095 12.8571 41.7143 12.8571 41.7143 12.9524C41.6191 13.0476 41.6191 13.1429 41.6191 13.2381C41.6191 13.3333 41.5238 13.3333 41.5238 13.4286C41.5238 13.5238 41.4286 13.619 41.4286 13.7143C41.4286 13.8095 41.4286 13.9048 41.3334 13.9048C41.3334 14 41.3334 14.0952 41.2381 14.2857C41.2381 14.381 41.2381 14.4762 41.2381 14.4762C41.2381 14.5714 41.2381 14.7619 41.2381 14.8571V14.9524C41.2381 15.0476 41.2381 15.0476 41.2381 15.1429C41.2381 15.5238 41.2381 15.9048 41.3334 16.381C41.5238 18.6667 43.1429 20.2857 45.1429 20.6667Z" fill="white"/>
<path id="Vector_5" d="M14.762 6.95229V8.09514C13.3334 7.04753 11.4286 6.38086 9.52389 6.38086C4.19055 6.38086 -0.0951555 11.0475 0.476272 16.4761C0.952463 20.6666 4.38103 24.0951 8.5715 24.5713C10.9525 24.7618 13.1429 24.0951 14.8572 22.857V24.1904H18.6667V6.95229H14.762ZM14.762 15.5237C14.762 18.857 11.7144 21.4285 8.28579 20.6666C6.28579 20.2856 4.66674 18.6666 4.19055 16.5713C3.52389 13.1428 6.19055 10.0951 9.52389 10.0951C12.381 10.0951 14.762 12.4761 14.762 15.5237Z" fill="white"/>
<path id="Vector_6" d="M124.857 27.8096V31.8096C122.381 31.6191 119.524 32.762 119.524 36.6667V45.3334H115.81V28.0953H119.524V30.9524C120.571 28.6667 122.667 27.8096 124.857 27.8096Z" fill="white"/>
<path id="Vector_7" d="M133.81 27.6191C128.762 27.6191 124.762 31.5239 124.762 36.6668C124.762 41.8096 128.857 45.7144 133.81 45.7144C138.857 45.7144 142.857 41.7144 142.857 36.6668C142.952 31.5239 138.952 27.6191 133.81 27.6191ZM133.81 31.2382C136.857 31.2382 139.143 33.5239 139.143 36.6668C139.143 39.8096 136.762 42.0953 133.81 42.0953C130.762 42.0953 128.476 39.8096 128.476 36.6668C128.476 33.5239 130.857 31.2382 133.81 31.2382Z" fill="white"/>
<path id="Vector_8" d="M167.429 28.0957L162 45.3338H158.381L154.762 33.7147L151.143 45.3338H147.524L142.095 28.0957H146L149.333 40.0005L152.952 28.0957H156.476L160.095 40.0005L163.429 28.0957H167.429Z" fill="white"/>
<path id="Vector_9" d="M172.381 28.0957H168.667V45.3338H172.381V28.0957Z" fill="white"/>
<path id="Vector_10" d="M65.9047 6.66699V10.667C63.4285 10.4765 60.5714 11.6194 60.5714 15.5241V24.1908H56.8571V6.95271H60.5714V9.80985C61.619 7.52413 63.7143 6.66699 65.9047 6.66699Z" fill="white"/>
<path id="Vector_11" fill-rule="evenodd" clip-rule="evenodd" d="M82.9521 30.2856V20.857L79.9044 19.1427C79.714 19.4284 79.5235 19.7141 79.2378 19.9046C78.2854 20.6665 77.0473 21.238 75.4282 21.238C72.6663 21.238 70.4759 19.8094 69.9044 17.1427H83.714C83.714 16.9046 83.7378 16.6427 83.7616 16.3808C83.7854 16.1189 83.8092 15.857 83.8092 15.6189C83.8092 10.6665 80.2854 6.57129 75.1425 6.57129C69.8092 6.57129 66.0949 10.4761 66.0949 15.6189C66.0949 20.7618 69.714 24.6665 75.4282 24.6665C76.8568 24.6665 78.0949 24.3808 79.2378 23.9046V45.3332H82.9521V36.0951C82.9521 32.5713 84.8568 31.1427 87.333 31.1427C89.6187 31.1427 91.1425 32.5713 91.1425 35.1427V45.3332H94.8568V34.6665C94.8568 30.1903 92.0949 27.6189 88.2854 27.6189C85.9044 27.6189 84.0949 28.4761 82.9521 30.2856ZM79.9997 14.0951C79.4282 11.1427 77.333 9.90462 75.0473 9.90462C72.2854 9.90462 70.3806 11.5237 69.9044 14.0951H79.9997Z" fill="white"/>
<path id="Vector_12" d="M98.381 19.048C97.5238 20.2861 96 21.1432 93.9048 21.1432C91.1429 21.1432 88.9524 19.8099 88.381 17.048H102.095C102.19 16.5718 102.19 16.0004 102.19 15.5242C102.19 10.5718 98.6667 6.47656 93.5238 6.47656C88.0952 6.47656 84.4762 10.4766 84.4762 15.5242C84.4762 20.667 88.1905 24.5718 93.8095 24.5718C97.1429 24.5718 99.8095 23.1432 101.333 20.8575L98.381 19.048ZM93.619 9.90513C95.9048 9.90513 98 11.1432 98.5714 14.0956H88.381C88.9524 11.5242 90.8571 9.90513 93.619 9.90513Z" fill="white"/>
<path id="Vector_13" d="M140.952 21.238C143.048 21.238 144.571 20.2856 145.429 19.1427L148.476 20.9522C146.857 23.3332 144.286 24.6665 140.952 24.6665C135.238 24.6665 131.619 20.7618 131.619 15.6189C131.619 10.4761 135.333 6.57129 140.667 6.57129C145.809 6.57129 149.333 10.6665 149.333 15.6189C149.333 16.0951 149.238 16.6665 149.238 17.1427H135.524C136 19.8094 138.19 21.238 140.952 21.238ZM145.524 14.0951C145.048 11.1427 142.857 9.90462 140.571 9.90462C137.809 9.90462 135.905 11.5237 135.333 14.0951H145.524Z" fill="white"/>
<path id="Vector_14" d="M168.667 24.1908H172.381V20.8574H168.667V24.1908Z" fill="white"/>
<path id="Vector_15" d="M29.1431 6.47656C26.7622 6.47656 24.9527 7.33371 23.8098 9.14323V7.14323V6.85752H20.0955V8.28609V24.0956H23.8098V14.8575C23.8098 11.3337 25.7146 9.90513 28.1908 9.90513C30.5717 9.90513 32.0003 11.2385 32.0003 13.9051V24.0956H35.7146V13.6194C35.8099 9.14323 33.048 6.47656 29.1431 6.47656Z" fill="white"/>
<path id="Vector_16" d="M154.857 24.1908H151.143V6.95275H154.857V9.14323C156 7.33371 157.809 6.47656 160.19 6.47656C164 6.47656 166.762 9.04799 166.762 13.5242V24.0956H163.048V14.0004C163.048 11.4289 161.524 10.0004 159.238 10.0004C156.762 10.0004 154.857 11.4289 154.857 14.9528V24.1908Z" fill="white"/>
<path id="Vector_17" d="M107.143 11.7147C107.143 10.4766 108.286 9.90513 109.619 9.90513C110.952 9.90513 112.095 10.4766 112.762 11.6194L116 10.0004C114.762 7.8099 112.476 6.47656 109.619 6.47656C106.095 6.47656 103.333 8.47656 103.333 11.7147C103.333 15.3337 106.476 16.1908 109.143 16.9528C111.048 17.5242 112.571 17.9051 112.571 19.2385C112.571 20.5718 111.333 21.1432 109.619 21.1432C108 21.1432 106.667 20.4766 106 19.2385L102.667 20.8575C103.81 23.1432 106.286 24.5718 109.524 24.5718C113.238 24.5718 116.286 22.667 116.286 19.2385C116.286 15.5242 113.048 14.5718 110.476 13.9051C108.762 13.4289 107.143 12.9528 107.143 11.7147Z" fill="white"/>
<path id="Vector_18" d="M124 9.90462C122.667 9.90462 121.524 10.4761 121.524 11.7141C121.524 13.0475 123.143 13.4284 124.952 13.9999C127.619 14.7618 130.762 15.6189 130.762 19.3332C130.762 22.7618 127.81 24.6665 124 24.6665C120.667 24.6665 118.286 23.238 117.143 20.9522L120.476 19.3332C121.143 20.5713 122.381 21.238 124.095 21.238C125.714 21.238 127.048 20.6665 127.048 19.3332C127.048 18.0951 125.429 17.6189 123.619 17.0475C120.952 16.2856 117.81 15.4284 117.81 11.8094C117.81 8.57129 120.571 6.57129 124.095 6.57129C126.857 6.57129 129.238 7.90462 130.476 10.0951L127.238 11.7141C126.476 10.4761 125.333 9.90462 124 9.90462Z" fill="white"/>
</g>
</svg>
