<svg xmlns="http://www.w3.org/2000/svg" width="25" height="25" viewBox="0 0 25 25" fill="none">
  <path d="M20.9168 21.751C18.8335 21.751 16.7751 21.2966 14.7418 20.388C12.7085 19.4793 10.8585 18.192 9.1918 16.526C7.52513 14.8593 6.2378 13.0093 5.3298 10.976C4.4218 8.94264 3.96746 6.88431 3.9668 4.80098C3.9668 4.50098 4.0668 4.25098 4.2668 4.05098C4.4668 3.85098 4.7168 3.75098 5.0168 3.75098H9.0668C9.30013 3.75098 9.50846 3.83031 9.6918 3.98898C9.87513 4.14764 9.98346 4.33498 10.0168 4.55098L10.6668 8.05098C10.7001 8.31764 10.6918 8.54264 10.6418 8.72598C10.5918 8.90931 10.5001 9.06764 10.3668 9.20098L7.9418 11.651C8.27513 12.2676 8.6708 12.8633 9.1288 13.438C9.5868 14.0126 10.0911 14.567 10.6418 15.101C11.1585 15.6176 11.7001 16.097 12.2668 16.539C12.8335 16.981 13.4335 17.385 14.0668 17.751L16.4168 15.401C16.5668 15.251 16.7628 15.1383 17.0048 15.063C17.2468 14.9876 17.4841 14.967 17.7168 15.001L21.1668 15.701C21.4001 15.7676 21.5918 15.8886 21.7418 16.064C21.8918 16.2393 21.9668 16.435 21.9668 16.651V20.701C21.9668 21.001 21.8668 21.251 21.6668 21.451C21.4668 21.651 21.2168 21.751 20.9168 21.751Z" fill="black"/>
</svg>