<svg width="74" height="74" viewBox="0 0 74 74" fill="none" xmlns="http://www.w3.org/2000/svg">
<path d="M0 4C0 1.79086 1.79086 0 4 0H70C72.2091 0 74 1.79086 74 4V70C74 72.2091 72.2091 74 70 74H4C1.79086 74 0 72.2091 0 70V4Z" fill="#F2F2F2"/>
<path d="M19.2941 46.8235L17 56L26.1765 53.7059L54.5858 25.2966C55.3668 24.5155 55.3668 23.2492 54.5858 22.4681L50.5319 18.4142C49.7508 17.6332 48.4845 17.6332 47.7034 18.4142L19.2941 46.8235Z" stroke="#292929" stroke-width="4" stroke-linecap="round" stroke-linejoin="round"/>
<path d="M42 24L49 31" stroke="#292929" stroke-width="4" stroke-linecap="round" stroke-linejoin="round"/>
<path d="M37 56H56" stroke="#292929" stroke-width="4" stroke-linecap="round" stroke-linejoin="round"/>
</svg>
