<svg width="120" height="23" viewBox="0 0 120 23" fill="none" xmlns="http://www.w3.org/2000/svg">
<g id="Clip path group">
<mask id="mask0_239_2" style="mask-type:luminance" maskUnits="userSpaceOnUse" x="0" y="0" width="120" height="23">
<g id="clip0">
<path id="Vector" d="M119.983 0H0V22.3834H119.983V0Z" fill="white"/>
</g>
</mask>
<g mask="url(#mask0_239_2)">
<g id="Group">
<path id="Vector_2" d="M40.3463 18.5979H36.6926V17.2123H36.6432C36.3214 17.7402 35.3978 19.0103 32.808 19.0103C28.9318 19.0103 26.3916 16.0082 26.3916 12.1567C26.3916 7.81859 29.4844 5.34437 32.7421 5.34437C33.4413 5.31839 34.1378 5.44096 34.7862 5.70396C35.4343 5.96695 36.0196 6.36443 36.503 6.87014V1.51758H40.338L40.3463 18.5979ZM33.4432 15.4392C33.8804 15.4541 34.3161 15.379 34.7231 15.2185C35.1301 15.058 35.4998 14.8156 35.8091 14.5062C36.1184 14.1968 36.3609 13.8272 36.5215 13.4201C36.6819 13.0131 36.757 12.5775 36.7421 12.1402C36.7421 11.2806 36.4006 10.4562 35.7928 9.84833C35.1849 9.24048 34.3606 8.89899 33.5008 8.89899C32.6412 8.89899 31.8168 9.24048 31.209 9.84833C30.6011 10.4562 30.2596 11.2806 30.2596 12.1402C30.2381 12.5693 30.305 12.9983 30.4557 13.4006C30.6067 13.803 30.8384 14.17 31.1369 14.4792C31.4352 14.7884 31.7938 15.0331 32.1905 15.1982C32.5871 15.3634 33.0135 15.4453 33.4432 15.4392Z" fill="white"/>
<path id="Vector_3" d="M55.4638 14.5814C54.9266 15.9067 54.0226 17.051 52.8575 17.8803C51.7937 18.6381 50.5183 19.0419 49.2121 19.0349C47.8491 19.0626 46.5087 18.6814 45.3641 17.9408C44.2194 17.1999 43.3227 16.1335 42.7892 14.8787C42.2559 13.6239 42.1104 12.2381 42.3715 10.8999C42.6327 9.56163 43.2883 8.33217 44.2542 7.36984C45.2201 6.40751 46.452 5.75636 47.7911 5.50024C49.1304 5.2441 50.5157 5.39474 51.7684 5.93272C53.0212 6.47071 54.0844 7.37143 54.8209 8.51887C55.5574 9.66632 55.9335 11.008 55.9009 12.3711C55.9035 12.7113 55.8731 13.0511 55.8101 13.3855H46.1854C46.295 14.0905 46.6631 14.7294 47.2182 15.1777C47.7731 15.626 48.4752 15.8515 49.1874 15.8101C49.6464 15.822 50.1008 15.7178 50.5088 15.5073C50.9167 15.2968 51.265 14.9869 51.5215 14.6061L55.4638 14.5814ZM52.0741 10.7711C51.8915 10.1412 51.5094 9.58757 50.9851 9.19363C50.4608 8.79966 49.8227 8.58666 49.1669 8.58666C48.5111 8.58666 47.873 8.79966 47.3487 9.19363C46.8244 9.58757 46.4422 10.1412 46.2597 10.7711H52.0741Z" fill="white"/>
<path id="Vector_4" d="M63.5049 9.39384C63.5049 9.11345 63.4388 8.42066 62.3007 8.42066C61.4759 8.42066 61.2121 8.932 61.2121 9.2454C61.2121 9.93818 62.1605 10.3341 63.1749 10.631C65.3441 11.233 67.6533 11.8763 67.6533 14.6474C67.6533 17.4186 65.278 19.0103 62.4409 19.0103C60.5029 19.0103 57.575 18.1361 57.2285 14.7629H61.0306C61.076 15.1078 61.2518 15.4221 61.5216 15.6414C61.7916 15.8607 62.1353 15.9685 62.4822 15.9423C63.1255 15.9423 63.8183 15.5712 63.8183 14.9526C63.8183 13.9629 62.8698 13.8474 60.4286 12.899C58.779 12.3712 57.3854 11.2495 57.3854 9.55054C57.3854 7.01035 59.6946 5.32788 62.3336 5.32788C63.9832 5.32788 66.9275 5.99592 67.2821 9.36911L63.5049 9.39384Z" fill="white"/>
<path id="Vector_5" d="M81.8884 14.5813C81.3513 15.9066 80.4471 17.0509 79.2822 17.8802C78.2183 18.638 76.943 19.0418 75.6369 19.0348C74.274 19.0608 72.9345 18.6782 71.791 17.9365C70.6472 17.1947 69.7517 16.1278 69.2197 14.8727C68.6877 13.6177 68.5433 12.2322 68.8054 10.8945C69.0675 9.55679 69.7239 8.32813 70.6901 7.36663C71.6563 6.40514 72.8882 5.75482 74.2272 5.49939C75.5663 5.24395 76.951 5.39509 78.2033 5.93333C79.4557 6.47159 80.5183 7.37232 81.2545 8.51961C81.9905 9.6669 82.3665 11.0082 82.3337 12.371C82.3365 12.7112 82.306 13.051 82.2431 13.3854H72.6348C72.7443 14.0904 73.1125 14.7293 73.6676 15.1776C74.2225 15.6259 74.9246 15.8514 75.6369 15.8102C76.0959 15.8226 76.5507 15.7188 76.9587 15.5082C77.3669 15.2977 77.7151 14.9873 77.971 14.606L81.8884 14.5813ZM78.4987 10.771C78.3162 10.1411 77.9341 9.58749 77.4097 9.19352C76.8854 8.79958 76.2473 8.58658 75.5915 8.58658C74.9357 8.58658 74.2976 8.79958 73.7733 9.19352C73.249 9.58749 72.8669 10.1411 72.6843 10.771H78.4987Z" fill="white"/>
<path id="Vector_6" d="M84.4287 5.77316H88.0327V7.15047H88.0822C88.4039 6.52367 89.0719 5.35254 91.2905 5.35254V9.20407C89.5174 9.25357 88.2637 9.61644 88.2637 11.5546V18.5978H84.4287V5.77316Z" fill="white"/>
<path id="Vector_7" d="M101.262 18.5979H97.5914L92.9977 5.77319H96.9647L99.4388 13.7567H99.4883L101.963 5.77319H105.93L101.262 18.5979Z" fill="white"/>
<path id="Vector_8" d="M119.546 14.5814C119.009 15.9067 118.105 17.051 116.94 17.8803C115.876 18.6381 114.601 19.0419 113.294 19.0349C111.931 19.0626 110.591 18.6814 109.446 17.9408C108.302 17.1999 107.405 16.1335 106.871 14.8787C106.338 13.6239 106.193 12.2381 106.454 10.8999C106.715 9.56163 107.37 8.33217 108.336 7.36984C109.302 6.40751 110.534 5.75636 111.873 5.50024C113.213 5.2441 114.598 5.39474 115.851 5.93272C117.104 6.47071 118.167 7.37143 118.903 8.51887C119.64 9.66632 120.016 11.008 119.983 12.3711C119.986 12.7113 119.955 13.0511 119.892 13.3855H110.292C110.402 14.0905 110.77 14.7294 111.325 15.1777C111.88 15.626 112.582 15.8515 113.294 15.8101C113.753 15.8227 114.208 15.7189 114.616 15.5083C115.024 15.2978 115.373 14.9874 115.628 14.6061L119.546 14.5814ZM116.156 10.7711C115.974 10.1412 115.592 9.58757 115.067 9.19363C114.543 8.79966 113.905 8.58666 113.249 8.58666C112.593 8.58666 111.955 8.79966 111.431 9.19363C110.907 9.58757 110.524 10.1412 110.342 10.7711H116.156Z" fill="white"/>
<path id="Vector_9" d="M20.668 10.8784C20.5483 7.93867 19.2906 5.16056 17.1608 3.13076C15.031 1.10096 12.1957 -0.0216311 9.25359 6.45731e-05H4.70944e-06V5.77324C-0.000892516 6.30429 0.126425 6.8277 0.371137 7.299C1.50103 9.41033 4.66803 9.73198 6.36699 9.73198H11.9752L4.55257 3.78561H9.21235L18.5154 11.2083L9.21235 18.6309H4.51957L11.9422 12.6846H6.36699C4.65154 12.6846 1.49278 13.0062 0.371137 15.1175C0.12899 15.5838 0.00174839 16.1013 4.70944e-06 16.6268V22.4H9.48451C10.9817 22.3996 12.4636 22.0986 13.8424 21.5153C15.2213 20.9317 16.4691 20.0776 17.5118 19.0033C18.5546 17.9289 19.3713 16.6564 19.9133 15.2607C20.4555 13.8651 20.7121 12.3749 20.668 10.8784Z" fill="white"/>
</g>
</g>
</g>
</svg>
