<svg width="25" height="25" viewBox="0 0 25 25" fill="none" xmlns="http://www.w3.org/2000/svg">
<g id="mdi:youtube">
<path id="Vector" d="M10.6725 15.8613L15.8625 12.8613L10.6725 9.86133V15.8613ZM22.2325 8.03133C22.3625 8.50133 22.4525 9.13133 22.5125 9.93133C22.5825 10.7313 22.6125 11.4213 22.6125 12.0213L22.6725 12.8613C22.6725 15.0513 22.5125 16.6613 22.2325 17.6913C21.9825 18.5913 21.4025 19.1713 20.5025 19.4213C20.0325 19.5513 19.1725 19.6413 17.8525 19.7013C16.5525 19.7713 15.3625 19.8013 14.2625 19.8013L12.6725 19.8613C8.48249 19.8613 5.87249 19.7013 4.84249 19.4213C3.94249 19.1713 3.36249 18.5913 3.11249 17.6913C2.98249 17.2213 2.89249 16.5913 2.83249 15.7913C2.76249 14.9913 2.73249 14.3013 2.73249 13.7013L2.67249 12.8613C2.67249 10.6713 2.83249 9.06133 3.11249 8.03133C3.36249 7.13133 3.94249 6.55133 4.84249 6.30133C5.31249 6.17133 6.17249 6.08133 7.49249 6.02133C8.79249 5.95133 9.98249 5.92133 11.0825 5.92133L12.6725 5.86133C16.8625 5.86133 19.4725 6.02133 20.5025 6.30133C21.4025 6.55133 21.9825 7.13133 22.2325 8.03133Z" fill="black"/>
</g>
</svg>
