<svg width="21" height="21" viewBox="0 0 21 21" fill="none" xmlns="http://www.w3.org/2000/svg">
<g id="ri:instagram-fill">
<path id="Vector" d="M11.4202 2.52886C12.0283 2.52652 12.6364 2.53264 13.2443 2.54719L13.406 2.55302C13.5927 2.55969 13.7768 2.56802 13.9993 2.57802C14.886 2.61969 15.491 2.75969 16.0218 2.96552C16.5718 3.17719 17.0352 3.46386 17.4985 3.92719C17.9221 4.34353 18.25 4.84715 18.4593 5.40302C18.6652 5.93386 18.8052 6.53969 18.8468 7.42636C18.8568 7.64802 18.8652 7.83302 18.8718 8.01969L18.8768 8.18136C18.8916 8.78902 18.898 9.39685 18.896 10.0047L18.8968 10.6264V11.718C18.8989 12.3261 18.8925 12.9343 18.8777 13.5422L18.8727 13.7039C18.866 13.8905 18.8577 14.0747 18.8477 14.2972C18.806 15.1839 18.6643 15.7889 18.4593 16.3197C18.2507 16.8762 17.9227 17.3802 17.4985 17.7964C17.0818 18.22 16.5779 18.5478 16.0218 18.7572C15.491 18.963 14.886 19.103 13.9993 19.1447C13.7768 19.1547 13.5927 19.163 13.406 19.1697L13.2443 19.1747C12.6364 19.1895 12.0283 19.1959 11.4202 19.1939L10.7985 19.1947H9.70766C9.09954 19.1967 8.49143 19.1904 7.88349 19.1755L7.72182 19.1705C7.524 19.1634 7.32622 19.155 7.12849 19.1455C6.24182 19.1039 5.63682 18.9622 5.10516 18.7572C4.54906 18.5483 4.04535 18.2204 3.62932 17.7964C3.20519 17.3799 2.87701 16.876 2.66766 16.3197C2.46182 15.7889 2.32182 15.1839 2.28016 14.2972C2.27088 14.0995 2.26254 13.9017 2.25516 13.7039L2.25099 13.5422C2.23563 12.9343 2.22868 12.3261 2.23016 11.718V10.0047C2.22783 9.39686 2.23394 8.78902 2.24849 8.18136L2.25432 8.01969C2.26099 7.83302 2.26932 7.64802 2.27932 7.42636C2.32099 6.53886 2.46099 5.93469 2.66682 5.40302C2.8763 4.84687 3.20513 4.34339 3.63016 3.92802C4.0459 3.50365 4.54929 3.17517 5.10516 2.96552C5.63682 2.75969 6.24099 2.61969 7.12849 2.57802L7.72182 2.55302L7.88349 2.54886C8.49114 2.5335 9.09898 2.52656 9.70682 2.52802L11.4202 2.52886ZM10.5635 6.69552C10.0114 6.68772 9.46329 6.78971 8.95097 6.99558C8.43865 7.20145 7.97236 7.50709 7.57919 7.89474C7.18603 8.28238 6.87382 8.74431 6.66073 9.25366C6.44763 9.76301 6.3379 10.3096 6.3379 10.8618C6.3379 11.4139 6.44763 11.9605 6.66073 12.4699C6.87382 12.9792 7.18603 13.4412 7.57919 13.8288C7.97236 14.2165 8.43865 14.5221 8.95097 14.728C9.46329 14.9338 10.0114 15.0358 10.5635 15.028C11.6686 15.028 12.7284 14.589 13.5098 13.8076C14.2912 13.0262 14.7302 11.9664 14.7302 10.8614C14.7302 9.75629 14.2912 8.69648 13.5098 7.91508C12.7284 7.13368 11.6686 6.69552 10.5635 6.69552ZM10.5635 8.36219C10.8956 8.35607 11.2256 8.41619 11.5342 8.53903C11.8427 8.66187 12.1238 8.84498 12.3608 9.07764C12.5978 9.31031 12.7861 9.58788 12.9147 9.89414C13.0433 10.2004 13.1095 10.5292 13.1095 10.8614C13.1096 11.1935 13.0435 11.5223 12.915 11.8286C12.7866 12.1349 12.5984 12.4126 12.3614 12.6453C12.1244 12.8781 11.8435 13.0613 11.5349 13.1842C11.2264 13.3071 10.8964 13.3674 10.5643 13.3614C9.90128 13.3614 9.2654 13.098 8.79656 12.6291C8.32772 12.1603 8.06432 11.5244 8.06432 10.8614C8.06432 10.1983 8.32772 9.56243 8.79656 9.09359C9.2654 8.62475 9.90128 8.36136 10.5643 8.36136L10.5635 8.36219ZM14.9385 5.44552C14.6697 5.45628 14.4154 5.57065 14.229 5.76467C14.0426 5.95868 13.9385 6.2173 13.9385 6.48636C13.9385 6.75541 14.0426 7.01403 14.229 7.20805C14.4154 7.40207 14.6697 7.51643 14.9385 7.52719C15.2148 7.52719 15.4797 7.41744 15.6751 7.22209C15.8704 7.02674 15.9802 6.76179 15.9802 6.48552C15.9802 6.20926 15.8704 5.94431 15.6751 5.74895C15.4797 5.5536 15.2148 5.44386 14.9385 5.44386V5.44552Z" fill="black"/>
</g>
</svg>
