<svg width="21" height="21" viewBox="0 0 21 21" fill="none" xmlns="http://www.w3.org/2000/svg">
<g id="uil:linkedin">
<path id="Vector" d="M17.8398 2.52795H3.72317C3.56448 2.52574 3.40692 2.55482 3.25947 2.61352C3.11203 2.67222 2.97759 2.75938 2.86383 2.87004C2.75008 2.9807 2.65924 3.11269 2.5965 3.25846C2.53375 3.40423 2.50034 3.56093 2.49817 3.71962V18.0029C2.50034 18.1616 2.53375 18.3183 2.5965 18.4641C2.65924 18.6099 2.75008 18.7419 2.86383 18.8525C2.97759 18.9632 3.11203 19.0503 3.25947 19.109C3.40692 19.1677 3.56448 19.1968 3.72317 19.1946H17.8398C17.9985 19.1968 18.1561 19.1677 18.3035 19.109C18.451 19.0503 18.5854 18.9632 18.6992 18.8525C18.8129 18.7419 18.9038 18.6099 18.9665 18.4641C19.0293 18.3183 19.0627 18.1616 19.0648 18.0029V3.71962C19.0627 3.56093 19.0293 3.40423 18.9665 3.25846C18.9038 3.11269 18.8129 2.9807 18.6992 2.87004C18.5854 2.75938 18.451 2.67222 18.3035 2.61352C18.1561 2.55482 17.9985 2.52574 17.8398 2.52795ZM7.52317 16.4779H5.02317V8.97795H7.52317V16.4779ZM6.27317 7.92795C5.92839 7.92795 5.59773 7.79098 5.35393 7.54719C5.11013 7.30339 4.97317 6.97273 4.97317 6.62795C4.97317 6.28317 5.11013 5.95251 5.35393 5.70871C5.59773 5.46491 5.92839 5.32795 6.27317 5.32795C6.45625 5.30719 6.64165 5.32533 6.81723 5.38118C6.99281 5.43704 7.15462 5.52936 7.29205 5.65208C7.42948 5.77481 7.53944 5.92518 7.61473 6.09335C7.69002 6.26152 7.72893 6.4437 7.72893 6.62795C7.72893 6.8122 7.69002 6.99438 7.61473 7.16255C7.53944 7.33072 7.42948 7.48109 7.29205 7.60381C7.15462 7.72654 6.99281 7.81885 6.81723 7.87471C6.64165 7.93057 6.45625 7.94871 6.27317 7.92795ZM16.5398 16.4779H14.0398V12.4529C14.0398 11.4446 13.6815 10.7863 12.7732 10.7863C12.4921 10.7883 12.2183 10.8765 11.9889 11.0389C11.7594 11.2013 11.5852 11.4302 11.4898 11.6946C11.4246 11.8905 11.3964 12.0968 11.4065 12.3029V16.4696H8.9065V8.96961H11.4065V10.0279C11.6336 9.63387 11.9639 9.30922 12.3619 9.08895C12.7598 8.86869 13.2103 8.76116 13.6648 8.77795C15.3315 8.77795 16.5398 9.85295 16.5398 12.1613V16.4779Z" fill="black"/>
</g>
</svg>
