<svg xmlns="http://www.w3.org/2000/svg" width="25" height="25" viewBox="0 0 25 25" fill="none">
<path d="M19.6063 5.66104C18.6895 4.73496 17.5975 4.0007 16.3939 3.50109C15.1904 3.00147 13.8994 2.7465 12.5963 2.75104C7.13628 2.75104 2.68628 7.20104 2.68628 12.661C2.68628 14.411 3.14628 16.111 4.00628 17.611L2.60628 22.751L7.85628 21.371C9.30628 22.161 10.9363 22.581 12.5963 22.581C18.0563 22.581 22.5063 18.131 22.5063 12.671C22.5063 10.021 21.4763 7.53104 19.6063 5.66104ZM12.5963 20.901C11.1163 20.901 9.66628 20.501 8.39628 19.751L8.09628 19.571L4.97628 20.391L5.80628 17.351L5.60628 17.041C4.78402 15.728 4.34742 14.2103 4.34628 12.661C4.34628 8.12104 8.04628 4.42104 12.5863 4.42104C14.7863 4.42104 16.8563 5.28104 18.4063 6.84104C19.1738 7.605 19.782 8.5137 20.1957 9.51446C20.6094 10.5152 20.8203 11.5881 20.8163 12.671C20.8363 17.211 17.1363 20.901 12.5963 20.901ZM17.1163 14.741C16.8663 14.621 15.6463 14.021 15.4263 13.931C15.1963 13.851 15.0363 13.811 14.8663 14.051C14.6963 14.301 14.2263 14.861 14.0863 15.021C13.9463 15.191 13.7963 15.211 13.5463 15.081C13.2963 14.961 12.4963 14.691 11.5563 13.851C10.8163 13.191 10.3263 12.381 10.1763 12.131C10.0363 11.881 10.1563 11.751 10.2863 11.621C10.3963 11.511 10.5363 11.331 10.6563 11.191C10.7763 11.051 10.8263 10.941 10.9063 10.781C10.9863 10.611 10.9463 10.471 10.8863 10.351C10.8263 10.231 10.3263 9.01104 10.1263 8.51104C9.92628 8.03104 9.71628 8.09104 9.56628 8.08104H9.08628C8.91628 8.08104 8.65628 8.14104 8.42628 8.39104C8.20628 8.64104 7.56628 9.24104 7.56628 10.461C7.56628 11.681 8.45628 12.861 8.57628 13.021C8.69628 13.191 10.3263 15.691 12.8063 16.761C13.3963 17.021 13.8563 17.171 14.2163 17.281C14.8063 17.471 15.3463 17.441 15.7763 17.381C16.2563 17.311 17.2463 16.781 17.4463 16.201C17.6563 15.621 17.6563 15.131 17.5863 15.021C17.5163 14.911 17.3663 14.861 17.1163 14.741Z" fill="white"/>
</svg>